<svg version="1.1" id="Layer_1" xmlns="http://www.w3.org/2000/svg" x="0" y="0" viewBox="0 0 479.9 362.1" xml:space="preserve"><style>.st1,.st2{fill-rule:evenodd;clip-rule:evenodd}.st2{fill:#6154a3}</style><path d="M245.7 0c-10.7 0-16.9 5.7-24 14.8C220.7 16.4 45 275.1 45 275.1h52.1L245.5 57.4l77.6 114h-90.9L205 211.3h145.3l43.6 63.9h52L268.6 14.3C261.5 5.5 256.2 0 245.7 0z" fill="#6154a3"/><path class="st1" d="M195.9 320.9c-1.5-2.2-3.1-4.4-4.7-6.5-.7-.9-1.6-1.3-2.8-1.3-1.8.1-2.8 1.3-3.7 2.6-8.4 12.1-16.8 24.3-25.1 36.4-.2.2-.3.5-.5.9h6.9c.6 0 .9-.2 1.3-.7 4.7-6.8 9.5-13.7 14.2-20.5 2.3-3.4 4.7-6.8 7.1-10.3 3.8 5.4 7.4 10.8 11.2 16.2h-12.4c-.3 0-.8 0-1 .3-1.3 1.8-2.6 3.7-4 5.7h20.5c.7 0 1.1.2 1.4.7 1.2 1.9 2.6 3.7 3.8 5.6.7 1 1.2 2.3 2.1 2.8.9.5 2.4.1 3.6.1h4.1c-.3-.4-.4-.7-.6-1-7.1-10.3-14.2-20.6-21.4-31zM59.7 313.1c-.4 0-.9.3-1.1.6-1.1 1.5-2.2 3.1-3.3 4.6-.1.2-.2.4-.3.7h22.1v33.9h7V319h17.1c.3 0 .8 0 1-.2 1.3-1.8 2.6-3.6 4-5.6h-.7c-15.4-.1-30.6-.1-45.8-.1zM238.9 319.1c2.7-.1 5.4 0 8.1 0h23.9c.4 0 .9-.1 1.1-.4 1.3-1.8 2.5-3.6 3.9-5.6H239c-1.3 0-2.6.1-3.8.4-3.4.8-5.9 2.5-6.8 6.1-.3 1.2-.4 2.4-.4 3.7v18c0 1.3 0 2.6.2 3.9.3 3.1 1.8 5.4 4.6 6.7 1.8.9 3.8 1.3 5.8 1.3h36.8c.1 0 .3 0 .5-.1-1.2-1.8-2.4-3.4-3.4-5.1-.4-.6-.9-.9-1.7-.9h-31.7c-2.8 0-4.1-1.3-4.1-4.1v-19.9c0-2.6 1.3-3.9 3.9-4zM162 313.1h-44.5c-1.7 0-2.9.3-3.7 1.9-.8 1.4-1.8 2.7-2.8 4.2h22.1v33.9h7v-33.9h17c.6 0 1-.2 1.4-.7 1-1.6 2.1-3.1 3.1-4.6.2-.2.2-.5.4-.8zM36.9 320.9c-1.5-2.2-3.1-4.4-4.7-6.5-.7-.9-1.6-1.3-2.8-1.3-1.8.1-2.8 1.3-3.7 2.6C17.3 327.8 8.9 340 .5 352.1c-.2.2-.3.5-.5.9h6.9c.6 0 .9-.2 1.3-.7 4.7-6.8 9.5-13.7 14.2-20.5 2.3-3.4 4.7-6.8 7.1-10.3 3.8 5.4 7.4 10.8 11.2 16.2H28.3c-.3 0-.8 0-1 .3-1.3 1.8-2.6 3.7-4 5.7h20.5c.7 0 1.1.2 1.4.7 1.2 1.9 2.6 3.7 3.8 5.6.7 1 1.2 2.3 2.1 2.8.9.5 2.4.1 3.6.1h4.1c-.3-.4-.4-.7-.6-1-7-10.3-14.1-20.6-21.3-31zM341.9 313.3l-.1-.2H332c-.3 0-.7.2-.9.5-6.5 5.3-12.9 10.7-19.4 16-.4.3-.9.5-1.4.5h-11.5c-.3 0-.6 0-.9-.1v-16.9H291V353h6.9v-16.8c.2 0 .2-.1.3-.1h13.2c.4 0 .8.2 1.1.5 6.5 5.3 13.1 10.7 19.6 16 .3.3.8.4 1.2.4h9c.2 0 .4-.1.8-.1-8.3-6.8-16.6-13.5-24.8-20.3 7.9-6.4 15.7-12.9 23.6-19.3z"/><path class="st2" d="M461.1 314.3c-1.8-.8-3.8-1.2-5.7-1.2h-27c-1.4 0-2.8.1-4.1.4-4.3.8-7.1 4-7.2 8.2-.1 7.7-.1 15.3 0 23 .1 3.5 1.8 6.1 5 7.5 2.1.9 4.2 1.1 6.4 1.1h19.7c1 0 1.5.3 2 1.1 1.5 2.4 3 4.7 4.5 7.1.2.3.5.6.8.6 2.2.1 4.5 0 6.9 0-2-3-3.9-5.9-5.9-8.9.4-.1.6-.1.9-.1 3.2-.4 6-1.5 7.5-4.6.9-1.7 1.1-3.5 1.1-5.4v-17.7c0-1.4 0-2.7-.1-4.1-.3-3.3-1.9-5.7-4.8-7zm-1.9 29c0 2.3-1 3.6-3.3 3.9-.8.1-1.7.1-2.5 0-.3 0-.6-.4-.8-.7-1.8-2.7-3.6-5.4-5.3-8.2-.3-.5-.7-.8-1.3-.7h-6.2c2 3.2 4 6.3 6 9.6-.5 0-.8.1-1.1.1h-16.4c-.5 0-1-.1-1.5-.2-1.9-.4-2.8-1.5-2.8-3.4v-21c0-2.2 1.4-3.5 3.6-3.6 1.6-.1 3.2-.1 4.8-.1 7.8 0 15.5 0 23.3.1 2.6 0 3.8 1.4 3.8 3.9-.3 6.8-.3 13.6-.3 20.3zM383.1 318.9h15c.4 0 .9-.1 1.1-.3 1.3-1.7 2.5-3.5 3.8-5.5h-42c-.4 0-.9 0-1.1.2-1.3 1.7-2.5 3.5-3.9 5.5h20.1v28.4h-12.4c-1.2 0-2.5-.3-3.4.2-.9.4-1.4 1.7-2 2.6-.7 1-1.3 1.9-2 2.9.2.1.3.1.3.1h41.9c.4 0 .8-.3 1.1-.6 1.1-1.4 2.1-2.9 3.1-4.4.1-.2.2-.4.4-.7h-19.9v-28.4z"/><g><path class="st1" d="M477.1 315.4v-.2c0-.9-.7-1.5-1.9-1.5h-2.1v4.8h1v-1.6h1.1l.8 1.6h1.1l-1-1.9c.6-.2 1-.6 1-1.2zm-1-.1c0 .4-.3.7-.9.7h-1.1v-1.4h1.1c.6 0 .9.2.9.7z"/><path class="st1" d="M475 311.1c-2.8 0-5 2.2-5 5s2.1 5 5 5 5-2.2 5-5c-.1-2.8-2.2-5-5-5zm0 9.3c-2.5 0-4.2-1.8-4.2-4.3s1.8-4.3 4.2-4.3c2.5 0 4.2 1.8 4.2 4.3 0 2.6-1.8 4.3-4.2 4.3z"/></g></svg>