<svg width="2100" height="2100" viewBox="0 0 2100 2100" fill="none" xmlns="http://www.w3.org/2000/svg">
<path d="M525.062 1522.67L525 1335.04C543.557 1342.87 562.614 1350.16 582.156 1356.95C597.665 1362.33 613.843 1365.01 630.019 1365L630.062 1522.66C630.062 1551.65 653.567 1575.16 682.551 1575.16L997.326 1575.09L997.562 1653.75C997.562 1726.24 1056.32 1785 1128.81 1785C1201.29 1785 1260.06 1726.24 1260.06 1653.91L1259.82 1575.09L1627.56 1575.16C1656.55 1575.16 1680.06 1551.65 1680.06 1522.67L1679.98 1286.04L1599 1286.21L1581.81 1285.47C1459.64 1275.55 1364.87 1173.27 1364.93 1047.88L1365.66 1030.68C1375.57 908.506 1477.85 813.75 1601.08 813.75L1679.98 813.645L1680.06 577.658C1680.06 551.884 1661.49 530.45 1636.99 526.004L1627.55 525.158L1312.37 525.095V446.25C1312.37 373.762 1253.62 315 1181.12 315C1158.45 315 1137.12 320.752 1118.5 330.876C1093.19 301.456 1056.28 281.604 1013.18 280.093C1052.46 240.395 1105.71 214.551 1164.95 210.545L1181.12 210C1300.73 210 1399.58 298.878 1415.22 414.192L1415.8 420.105L1627.56 420.158C1709.43 420.158 1776.7 482.621 1784.34 562.502L1785.06 577.672L1784.97 918.603L1601.12 918.75C1532.65 918.75 1475.82 971.412 1470.44 1037.05L1469.87 1050C1469.87 1118.47 1522.54 1175.31 1588.18 1180.68L1601.08 1181.25L1784.97 1181.1L1785.06 1522.66C1785.06 1609.64 1714.54 1680.16 1627.55 1680.16L1363.4 1680.1L1362.91 1685.81C1347.97 1795.88 1257.23 1881.86 1144.98 1889.45L1128.81 1890C1009.21 1890 910.363 1801.12 894.719 1685.93L894.058 1680.1L682.562 1680.16C600.693 1680.16 533.415 1617.69 525.783 1537.84L525.062 1522.67ZM840 351.444C873.949 365.708 908.932 375.401 945 380.568C965.642 383.526 986.64 385 1008 385C1028.3 385 1045.23 399.996 1049.15 419.933L1050 428.75V691.36C1050 972.964 912.134 1164.41 643.281 1257.75C634.66 1260.75 625.34 1260.75 616.719 1257.75C540.565 1231.31 474.922 1197 419.944 1155C379.536 1124.13 344.89 1089.1 316.068 1050C250.273 960.73 214.824 850.186 210.459 719.22L210 691.36V428.75C210 404.587 228.804 385 252 385C380.455 385 495.95 331.54 600.371 222.808C616.785 205.717 643.395 205.733 659.791 222.843C716.427 281.948 776.394 324.719 840 351.444Z" fill="#0078D4"/>
</svg>
